<svg xmlns="http://www.w3.org/2000/svg">
  <symbol id="headphones" viewBox="0 0 320 220">
    <path d="M77 119V94c0-48 37-75 83-75s83 27 83 75v25" fill="none" stroke="#52e2ef" stroke-width="14" stroke-linecap="round"/>
    <path d="M83 104h18c11 0 20 9 20 20v49c0 11-9 20-20 20H83c-12 0-21-9-21-21v-47c0-12 9-21 21-21Z" fill="#133f49" stroke="#8cf3f8" stroke-width="5"/>
    <path d="M237 104h-18c-11 0-20 9-20 20v49c0 11 9 20 20 20h18c12 0 21-9 21-21v-47c0-12-9-21-21-21Z" fill="#133f49" stroke="#8cf3f8" stroke-width="5"/>
    <path d="M121 164c11 12 24 18 39 18s28-6 39-18" fill="none" stroke="#ff805d" stroke-width="5" stroke-linecap="round"/>
  </symbol>
  <symbol id="earbuds" viewBox="0 0 320 220">
    <g fill="#eaf9fb" stroke="#52e2ef" stroke-width="5">
      <path d="M83 42c-27 0-46 18-46 43 0 22 14 38 35 42l10 66c2 12 12 20 24 18 12-2 19-13 17-25l-11-72c13-8 21-20 21-36 0-22-21-36-50-36Z"/>
      <path d="M237 42c27 0 46 18 46 43 0 22-14 38-35 42l-10 66c-2 12-12 20-24 18-12-2-19-13-17-25l11-72c-13-8-21-20-21-36 0-22 21-36 50-36Z"/>
    </g>
    <circle cx="84" cy="79" r="15" fill="#0d252d"/>
    <circle cx="236" cy="79" r="15" fill="#0d252d"/>
    <path d="M145 164h30" stroke="#ff805d" stroke-width="6" stroke-linecap="round"/>
  </symbol>
  <symbol id="watch" viewBox="0 0 320 220">
    <path d="M133 4h54l8 45h-70l8-45Zm-8 167h70l-8 45h-54l-8-45Z" fill="#173943" stroke="#52e2ef" stroke-width="4"/>
    <rect x="102" y="42" width="116" height="137" rx="30" fill="#07171d" stroke="#8cf3f8" stroke-width="7"/>
    <rect x="117" y="58" width="86" height="105" rx="21" fill="#102f38"/>
    <path d="M132 119c12-4 15-33 29-33 13 0 15 23 27 23" fill="none" stroke="#ff805d" stroke-width="5" stroke-linecap="round"/>
    <circle cx="161" cy="86" r="6" fill="#a9e565"/>
    <circle cx="226" cy="94" r="5" fill="#52e2ef"/>
  </symbol>
  <symbol id="keyboard" viewBox="0 0 320 220">
    <path d="M38 62h244l19 118H19L38 62Z" fill="#0c252d" stroke="#52e2ef" stroke-width="5" stroke-linejoin="round"/>
    <g fill="#1c4650">
      <path d="M51 81h28v22H51zM87 81h28v22H87zM123 81h28v22h-28zM159 81h28v22h-28zM195 81h28v22h-28zM231 81h28v22h-28z"/>
      <path d="M46 111h32v22H46zM86 111h32v22H86zM126 111h32v22h-32zM166 111h32v22h-32zM206 111h32v22h-32zM246 111h28v22h-28z"/>
      <path d="M41 141h38v22H41zM87 141h36v22H87zM131 141h95v22h-95zM234 141h45v22h-45z"/>
    </g>
    <path d="M51 81h28v22H51zM206 111h32v22h-32z" fill="#ff805d"/>
  </symbol>
  <symbol id="mouse" viewBox="0 0 320 220">
    <path d="M160 17c-53 0-86 39-86 96v17c0 49 35 79 86 79s86-30 86-79v-17c0-57-33-96-86-96Z" fill="#102f38" stroke="#52e2ef" stroke-width="6"/>
    <path d="M160 19v73" stroke="#8cf3f8" stroke-width="5"/>
    <rect x="149" y="43" width="22" height="39" rx="11" fill="#ff805d"/>
    <path d="M92 118c18-13 42-20 68-20s50 7 68 20" fill="none" stroke="#23515c" stroke-width="5"/>
    <path d="M113 159c14 12 29 18 47 18s33-6 47-18" fill="none" stroke="#a9e565" stroke-width="4" stroke-linecap="round"/>
  </symbol>
</svg>
